<?xml version="1.0" encoding="iso-8859-1"?>
<!-- Generator: Adobe Illustrator 19.0.0, SVG Export Plug-In . SVG Version: 6.00 Build 0)  -->
<svg version="1.1" id="Layer_1" xmlns="http://www.w3.org/2000/svg" xmlns:xlink="http://www.w3.org/1999/xlink" x="0px" y="0px"
	 viewBox="0 0 512 512" style="enable-background:new 0 0 512 512;" xml:space="preserve">
<circle style="fill:#C0E7F9;" cx="84.522" cy="65.076" r="51.922"/>
<rect x="7.877" y="413.293" style="fill:#EAD4B7;" width="203.67" height="69.027"/>
<g>
	<path style="fill:#FCE8CA;" d="M107.462,482.315V359.1c0-14.655-11.88-26.535-26.535-26.535H7.877v123.216h73.051
		C95.582,455.781,107.462,467.66,107.462,482.315L107.462,482.315z"/>
	<path style="fill:#FCE8CA;" d="M107.462,482.315V359.1c0-14.655,11.88-26.535,26.535-26.535h73.051v123.216h-73.051
		C119.342,455.781,107.462,467.66,107.462,482.315L107.462,482.315z"/>
</g>
<path style="fill:#71C5F4;" d="M333.972,334.359H227.845c-38.436,0-69.596,31.159-69.596,69.596v93.762h245.318v-93.762
	C403.568,365.518,372.41,334.359,333.972,334.359z"/>
<path style="fill:#64B4D8;" d="M270.726,334.359h-42.881c-38.436,0-69.596,31.159-69.596,69.596v93.762h42.881v-93.762
	C201.131,365.518,232.29,334.359,270.726,334.359z"/>
<path style="fill:#F7CBA4;" d="M242.926,352.718l-46.193-33.561c-24.41-17.735-37.616-47.063-34.714-77.096l8.012-82.911
	c5.519-57.104,53.505-100.677,110.875-100.677l0,0c57.37,0,105.356,43.573,110.875,100.677l8.012,82.911
	c2.902,30.033-10.302,59.36-34.714,77.096l-46.193,33.561C296.238,369.172,265.572,369.172,242.926,352.718z"/>
<path style="fill:#E0B394;" d="M190.765,258.401c-0.776,13.132,3.5,26.051,11.962,36.123l48.279,59.326
	c2.521,3.005,5.379,5.525,8.474,7.54c-5.807-2.026-11.388-4.929-16.553-8.676l-46.194-33.557
	c-24.408-17.735-37.608-47.061-34.705-77.095l8.001-82.913c5.469-56.547,52.575-99.826,109.212-100.648
	c-34.885,0.844-74.386,33.726-76.446,68.745L190.765,258.401z"/>
<g>
	<circle style="fill:#C0E7F9;" cx="229.687" cy="225.625" r="32.127"/>
	<circle style="fill:#C0E7F9;" cx="330.223" cy="225.625" r="32.127"/>
</g>
<path style="fill:#F9C573;" d="M452.584,260.955c-3.646,21.966-22.079,38.913-44.27,40.793c-7.348,0.619-14.404-0.383-20.83-2.701
	c9.633-15.586,14.134-34.108,12.311-52.923l-8.012-82.902c-1.339-13.841-5.165-26.884-11.028-38.711
	c-7.675,20.672-27.581,35.402-50.92,35.402h-97.857c-23.339,0-43.246-14.73-50.92-35.402c-5.863,11.827-9.689,24.869-11.028,38.711
	l-8.012,82.902c-1.812,18.781,2.678,37.293,12.277,52.867c-6.268,2.296-13.132,3.32-20.312,2.813
	c-26.49-1.902-46.284-24.172-45.406-50.707c0.405-12.255,5.098-23.361,12.885-31.734c13.346-14.359,21.246-32.915,21.246-52.507
	v-1.227c0-7.686,0.641-15.225,1.846-22.574c6.268-62.556,54.6-112.7,116.29-121.747c6.549-0.968,13.245-1.463,20.064-1.463
	c69.713,0,127.262,52.046,135.915,119.407c1.654,8.541,2.532,17.352,2.532,26.377v1.947c0,19.367,7.663,37.788,20.796,52.034
	C449.872,230.167,455.239,244.987,452.584,260.955z"/>
<rect x="358.963" y="462.244" style="fill:#F95428;" width="144.04" height="35.477"/>
<rect x="376.968" y="431.906" style="fill:#E6E6E6;" width="108.03" height="30.34"/>
<rect x="366.458" y="405.9" style="fill:#FCEA81;" width="129.04" height="25.995"/>
<path style="fill:#E2AF66;" d="M231.977,159.914c-23.339,0-43.246-14.73-50.92-35.402c-5.863,11.827-9.689,24.869-11.028,38.711
	l-8.012,82.902c-1.812,18.781,2.678,37.293,12.277,52.867c-6.268,2.296-13.132,3.32-20.312,2.813
	c-26.49-1.902-46.284-24.172-45.406-50.707c0.405-12.255,5.098-23.361,12.885-31.734c13.346-14.359,21.246-32.915,21.246-52.507
	v-1.227c0-7.686,0.641-15.225,1.846-22.574c6.268-62.556,54.6-112.7,116.29-121.747C259.435,22.412,197.667,71.036,231.977,159.914z
	"/>
<path d="M184.477,343.964c-21.356,12.965-34.106,35.603-34.106,60.554v5.957c0,4.661,3.779,8.44,8.44,8.44
	c4.661,0,8.44-3.779,8.44-8.44v-5.957c0-19.004,9.715-36.246,25.986-46.125c3.985-2.418,5.253-7.61,2.835-11.594
	C193.652,342.814,188.462,341.544,184.477,343.964z"/>
<path d="M378.451,343.964c-3.987-2.418-9.176-1.15-11.595,2.835c-2.418,3.985-1.149,9.176,2.835,11.594
	c10.522,6.387,18.615,16.247,22.79,27.761c1.243,3.432,4.483,5.566,7.936,5.566c0.954,0,1.927-0.163,2.876-0.508
	c4.382-1.589,6.646-6.429,5.057-10.811C402.867,365.281,392.25,352.341,378.451,343.964z"/>
<path d="M303.064,292.417c-5.768,5.769-13.438,8.946-21.598,8.946c-8.159,0-15.829-3.177-21.598-8.946
	c-3.297-3.296-8.639-3.296-11.935,0s-3.296,8.639,0,11.935c8.957,8.957,20.867,13.891,33.534,13.891
	c12.668,0,24.578-4.933,33.535-13.891c3.296-3.296,3.296-8.64,0-11.935C311.705,289.122,306.362,289.122,303.064,292.417z"/>
<path d="M343.07,364.957c-4.582-0.827-8.978,2.218-9.806,6.805l-7.657,42.391l-39.251-27.885c-2.928-2.08-6.849-2.08-9.777,0
	l-39.25,27.885l-7.657-42.39c-0.828-4.587-5.218-7.634-9.805-6.805c-4.587,0.828-7.634,5.218-6.805,9.805l10.018,55.467
	c0.513,2.843,2.444,5.225,5.118,6.315c1.027,0.419,2.11,0.625,3.187,0.625c1.726,0,3.439-0.53,4.888-1.56l36.754-26.112v80.343
	H167.249v-51.231c0-4.661-3.779-8.44-8.44-8.44s-8.44,3.779-8.44,8.44v59.671c0,4.661,3.779,8.44,8.44,8.44h171.451
	c4.662,0,8.44-3.779,8.44-8.44s-3.778-8.44-8.44-8.44h-40.353v-80.343l36.754,26.112c2.354,1.672,5.399,2.024,8.075,0.935
	c2.674-1.09,4.606-3.473,5.119-6.315l10.019-55.467C350.705,370.175,347.657,365.785,343.07,364.957z"/>
<path d="M134.559,464.783c4.661,0,8.44-3.779,8.44-8.44s-3.779-8.44-8.44-8.44c-6.617,0-12.813,1.848-18.095,5.054v-93.295
	c0-9.977,8.117-18.095,18.095-18.095h35.909c4.661,0,8.44-3.779,8.44-8.44s-3.779-8.44-8.44-8.44h-35.909
	c-10.605,0-20.115,4.751-26.535,12.229c-6.419-7.478-15.93-12.229-26.535-12.229H8.44c-4.661,0-8.44,3.779-8.44,8.44v123.216v26.535
	c0,4.661,3.779,8.44,8.44,8.44h126.119c4.661,0,8.44-3.779,8.44-8.44s-3.779-8.44-8.44-8.44h-15.993
	C121.605,468.704,127.629,464.783,134.559,464.783z M16.88,341.568h64.611c9.977,0,18.095,8.117,18.095,18.095v93.295
	c-5.282-3.206-11.477-5.054-18.095-5.054H16.88V341.568z M16.88,464.783h64.611c6.93,0,12.955,3.919,15.993,9.655H16.88V464.783z"/>
<path d="M69.939,355.148H36.93c-4.661,0-8.44,3.779-8.44,8.44s3.779,8.44,8.44,8.44h33.009c4.661,0,8.44-3.779,8.44-8.44
	S74.6,355.148,69.939,355.148z"/>
<path d="M69.939,416.436H36.93c-4.661,0-8.44,3.779-8.44,8.44c0,4.661,3.779,8.44,8.44,8.44h33.009c4.661,0,8.44-3.779,8.44-8.44
	C78.379,420.215,74.6,416.436,69.939,416.436z"/>
<path d="M69.939,385.792H36.93c-4.661,0-8.44,3.779-8.44,8.44s3.779,8.44,8.44,8.44h33.009c4.661,0,8.44-3.779,8.44-8.44
	S74.6,385.792,69.939,385.792z"/>
<path d="M503.56,454.363h-9.565v-13.46h2.063c4.662,0,8.44-3.779,8.44-8.44v-25.997c0-4.661-3.778-8.44-8.44-8.44H367.023
	c-4.662,0-8.44,3.779-8.44,8.44v25.997c0,4.661,3.778,8.44,8.44,8.44h2.063v13.46h-9.565c-4.662,0-8.44,3.779-8.44,8.44v35.477
	c0,4.661,3.778,8.44,8.44,8.44h96.402c4.662,0,8.44-3.779,8.44-8.44s-3.778-8.44-8.44-8.44H367.96v-18.597h9.565h108.03h9.565
	v18.597h-11.065c-4.662,0-8.44,3.779-8.44,8.44s3.778,8.44,8.44,8.44h19.505c4.662,0,8.44-3.779,8.44-8.44v-35.477
	C512,458.141,508.221,454.363,503.56,454.363z M375.463,414.907h112.155v9.117h-2.063h-108.03h-2.063L375.463,414.907
	L375.463,414.907z M385.965,454.363v-13.46h91.15v13.46H385.965z"/>
<path d="M85.08,125.997c33.281,0,60.358-27.077,60.358-60.358S118.361,5.281,85.08,5.281S24.722,32.357,24.722,65.639
	S51.799,125.997,85.08,125.997z M85.08,22.161c23.974,0,43.479,19.505,43.479,43.479s-19.505,43.478-43.479,43.478
	S41.602,89.613,41.602,65.639S61.107,22.161,85.08,22.161z"/>
<path d="M85.08,74.079h13.332c4.661,0,8.44-3.779,8.44-8.44s-3.779-8.44-8.44-8.44H93.52V43.094c0-4.661-3.779-8.44-8.44-8.44
	s-8.44,3.779-8.44,8.44v22.546C76.64,70.3,80.419,74.079,85.08,74.079z"/>
<path d="M134.827,166.193v1.227c0,16.98-6.744,33.587-18.986,46.759c-9.301,10-14.677,23.212-15.141,37.203
	c-1.029,31.093,22.357,57.187,53.248,59.405c1.411,0.099,2.816,0.15,4.214,0.15c4.474,0,8.871-0.521,13.158-1.535
	c5.756,8.054,12.811,15.247,21.012,21.205l46.194,33.568c12.842,9.331,27.892,13.997,42.941,13.997
	c15.049,0,30.099-4.666,42.941-13.997l46.193-33.568c8.189-5.949,15.236-13.131,20.987-21.17c5.839,1.363,11.865,1.803,17.999,1.286
	c26.245-2.224,47.579-21.887,51.883-47.818c2.924-17.574-2.381-35.232-14.555-48.449c-11.97-12.985-18.561-29.433-18.561-46.314
	v-1.947c0-9.282-0.886-18.608-2.632-27.722C416.316,66.335,354.346,11.97,281.465,11.97c-36.298,0-71.062,13.444-97.889,37.857
	c-26.578,24.185-43.204,57.093-46.839,92.689C135.47,150.332,134.827,158.296,134.827,166.193z M369.506,214.065
	c-5.165-16.468-20.567-28.449-38.716-28.449c-19.474,0-35.782,13.796-39.677,32.127h-21.187
	c-3.895-18.33-20.203-32.127-39.676-32.127c-17.831,0-32.999,11.568-38.425,27.589l-16.666-8.974l3.831-39.638
	c0.662-6.845,1.984-13.541,3.949-20.027c11.701,15.035,29.952,24.345,49.599,24.345h97.856c19.647,0,37.899-9.31,49.599-24.345
	c1.965,6.487,3.287,13.18,3.95,20.026l3.831,39.637L369.506,214.065z M354.477,226.183c0,13.06-10.625,23.687-23.687,23.687
	s-23.687-10.625-23.687-23.687c0-13.061,10.625-23.687,23.687-23.687S354.477,213.122,354.477,226.183z M206.564,226.155
	c0.015-13.048,10.633-23.659,23.686-23.659c13.06,0,23.686,10.625,23.686,23.687c0,13.061-10.625,23.687-23.686,23.687
	c-13.059,0-23.683-10.623-23.687-23.681C206.563,226.178,206.564,226.166,206.564,226.155z M360.677,316.949l-46.194,33.568
	c-19.748,14.35-46.287,14.35-66.036,0l-46.194-33.568c-21.895-15.909-33.88-42.522-31.276-69.455l2.419-25.039l16.634,8.957
	c2.575,19.906,19.622,35.338,40.218,35.338c19.474,0,35.782-13.796,39.676-32.127h3.111c-0.002,0.083-0.012,0.164-0.012,0.248
	v17.442h-0.385c-4.662,0-8.44,3.779-8.44,8.44s3.778,8.44,8.44,8.44h17.648c4.662,0,8.44-3.779,8.44-8.44s-3.778-8.44-8.44-8.44
	h-0.384v-17.442c0-0.083-0.01-0.164-0.012-0.248h1.221c3.895,18.33,20.203,32.127,39.677,32.127
	c20.216,0,37.024-14.867,40.07-34.241l18.675-10.056l2.421,25.042C394.558,274.426,382.572,301.041,360.677,316.949z
	 M151.707,166.193c0-7.071,0.583-14.206,1.731-21.207c0.028-0.174,0.052-0.349,0.07-0.524c3.163-31.541,17.877-60.717,41.431-82.151
	c23.711-21.578,54.44-33.461,86.529-33.461c64.505,0,119.339,48.167,127.55,112.039c0.022,0.177,0.051,0.352,0.084,0.528
	c1.575,8.144,2.374,16.48,2.374,24.777v1.947c0,21.132,8.179,41.643,23.027,57.752c8.62,9.358,12.38,21.839,10.317,34.244
	c-2.99,18.018-18.406,32.219-36.651,33.764c-2.548,0.214-5.065,0.186-7.544-0.056c6.78-14.794,9.743-31.333,8.135-47.974
	l-8.012-82.903c-1.412-14.599-5.406-28.61-11.868-41.646c-1.496-3.017-4.649-4.856-8.003-4.68c-3.362,0.177-6.299,2.335-7.471,5.492
	c-6.638,17.883-23.923,29.9-43.008,29.9H232.54c-19.085,0-36.369-12.016-43.008-29.9c-1.173-3.156-4.107-5.315-7.471-5.49
	c-3.369-0.179-6.508,1.663-8.003,4.68c-6.462,13.034-10.454,27.047-11.868,41.647l-8.012,82.902
	c-1.608,16.638,1.354,33.172,8.129,47.964c-2.351,0.24-4.74,0.287-7.159,0.114c-21.798-1.565-38.303-20.017-37.575-42.01
	c0.327-9.92,4.103-19.247,10.632-26.266c15.157-16.307,23.503-36.995,23.503-58.253v-1.228H151.707z"/>
<circle cx="306.737" cy="446.771" r="8.44"/>
<circle cx="330.797" cy="226.176" r="8.44"/>
<circle cx="230.239" cy="226.188" r="8.44"/>
<g>
</g>
<g>
</g>
<g>
</g>
<g>
</g>
<g>
</g>
<g>
</g>
<g>
</g>
<g>
</g>
<g>
</g>
<g>
</g>
<g>
</g>
<g>
</g>
<g>
</g>
<g>
</g>
<g>
</g>
</svg>
